<svg width="60" height="60" viewBox="0 0 60 60" fill="none" xmlns="http://www.w3.org/2000/svg">
<path d="M16.1026 43H10.8974C10.402 43 10 42.552 10 42C10 41.448 10.402 41 10.8974 41H16.1026C16.598 41 17 41.448 17 42C17 42.552 16.5984 43 16.1026 43Z" fill="white"/>
<path d="M54.5268 42.9995H53.8632C53.2434 42.9995 53.5 42.5115 53.5 41.9102C53.5 41.309 53.2434 40.821 53.8632 40.821H54.5268C55.2038 40.821 55.7551 40.2868 55.7551 39.6294V29.4316C55.7551 28.227 55.1976 27.1056 54.2253 26.3557L51.2158 24.0335C50.5022 23.4823 49.6063 23.179 48.694 23.179L44.6071 23V40.821C45.2269 40.821 45.6786 41.309 45.6786 41.9102C45.6786 42.5115 45.1756 42.9995 44.5558 42.9995L44.1228 43C43.503 43 43 42.512 43 41.9108V22.0892C43 21.488 43.503 21 44.1228 21H48.6935C50.1115 21 51.5037 21.4716 52.613 22.3278L55.6226 24.65C57.1338 25.816 58 27.5587 58 29.4316V39.63C58 41.4876 56.4422 42.9995 54.5268 42.9995Z" fill="white"/>
<path d="M54.2763 32H49.6012C48.7186 32 48 31.2918 48 30.4213V24.7136C48 24.3197 48.3242 24 48.7237 24C49.1232 24 49.4474 24.3197 49.4474 24.7136V30.4213C49.4474 30.5047 49.5162 30.5729 49.6012 30.5729H54.2763C54.6758 30.5729 55 30.8926 55 31.2864C55 31.6803 54.6758 32 54.2763 32Z" fill="white"/>
<path fill-rule="evenodd" clip-rule="evenodd" d="M21 47C23.7614 47 26 44.7614 26 42C26 39.2386 23.7614 37 21 37C18.2386 37 16 39.2386 16 42C16 44.7614 18.2386 47 21 47ZM21 45.3333C22.8409 45.3333 24.3333 43.841 24.3333 42C24.3333 40.159 22.8409 38.6667 21 38.6667C19.1591 38.6667 17.6667 40.159 17.6667 42C17.6667 43.841 19.1591 45.3333 21 45.3333Z" fill="white"/>
<path fill-rule="evenodd" clip-rule="evenodd" d="M50 47C52.7614 47 55 44.7614 55 42C55 39.2386 52.7614 37 50 37C47.2386 37 45 39.2386 45 42C45 44.7614 47.2386 47 50 47ZM50 45.3333C51.8409 45.3333 53.3333 43.841 53.3333 42C53.3333 40.159 51.8409 38.6667 50 38.6667C48.1591 38.6667 46.6667 40.159 46.6667 42C46.6667 43.841 48.1591 45.3333 50 45.3333Z" fill="white"/>
<path d="M21 43C21.5523 43 22 42.5523 22 42C22 41.4477 21.5523 41 21 41C20.4477 41 20 41.4477 20 42C20 42.5523 20.4477 43 21 43Z" fill="white"/>
<path d="M50 43C50.5523 43 51 42.5523 51 42C51 41.4477 50.5523 41 50 41C49.4477 41 49 41.4477 49 42C49 42.5523 49.4477 43 50 43Z" fill="white"/>
<path d="M20.7658 34.1588H5.53981C4.81273 34.1588 4.22263 33.7108 4.22263 33.1588C4.22263 32.6068 4.81273 32.1588 5.53981 32.1588H20.7658C21.4929 32.1588 22.083 32.6068 22.083 33.1588C22.083 33.7108 21.4929 34.1588 20.7658 34.1588Z" fill="white"/>
<path d="M17.8977 22.8099H7.03484C6.30775 22.8099 5.71765 22.3619 5.71765 21.8099C5.71765 21.2579 6.30775 20.8099 7.03484 20.8099H17.8977C18.6248 20.8099 19.2149 21.2579 19.2149 21.8099C19.2149 22.3619 18.6248 22.8099 17.8977 22.8099Z" fill="white"/>
<path d="M16.8729 28.4844H1.64687C0.919781 28.4844 0.329681 28.0364 0.329681 27.4844C0.329681 26.9324 0.919781 26.4844 1.64687 26.4844H16.8729C17.6 26.4844 18.1901 26.9324 18.1901 27.4844C18.1901 28.0364 17.6006 28.4844 16.8729 28.4844Z" fill="white"/>
<path d="M43 40.9286H26.194C26.194 40.9286 25.5 40.9286 25.5 41.9643C25.5 43 26.194 43 26.194 43H44C44 43 44 43.0179 44.5 42.5C45 41.9821 45 41 45 41V16.0714C45 16.0714 45 15.0357 44.5 14.5179C44 14 43 14 43 14H10C10 14 9 14 9 15.0357C9 16.0714 10 16.0714 10 16.0714H43V40.9286Z" fill="white"/>
<path d="M39.2067 23.0865L32.2807 19.1977C32.0418 19.068 31.7731 19 31.5 19C31.2269 19 30.9582 19.068 30.7193 19.1977L23.7933 23.0865C23.5515 23.222 23.3506 23.4179 23.2113 23.6543C23.0719 23.8907 22.999 24.1591 23 24.4322V31.7283C23.0181 31.9823 23.1 32.2279 23.2384 32.4433C23.3769 32.6587 23.5675 32.8372 23.7933 32.9628L30.7193 36.8023C30.9582 36.932 31.2269 37 31.5 37C31.7731 37 32.0418 36.932 32.2807 36.8023L39.2067 32.9628C39.4325 32.8372 39.6231 32.6587 39.7616 32.4433C39.9 32.2279 39.9819 31.9823 40 31.7283V24.3828C39.9923 24.1182 39.9153 23.8599 39.7763 23.6329C39.6374 23.4059 39.4412 23.2177 39.2067 23.0865Z" fill="#EBB700"/>
<path d="M39.2067 23.0865L32.2807 19.1977C32.0418 19.068 31.7731 19 31.5 19C31.2269 19 30.9582 19.068 30.7193 19.1977L23.7933 23.0865C23.5515 23.222 23.3506 23.4179 23.2113 23.6543C23.0719 23.8907 22.999 24.1591 23 24.4322V31.7283C23.0181 31.9823 23.1 32.2279 23.2384 32.4433C23.3769 32.6587 23.5675 32.8372 23.7933 32.9628L30.7193 36.8023C30.9582 36.932 31.2269 37 31.5 37C31.7731 37 32.0418 36.932 32.2807 36.8023L39.2067 32.9628C39.4325 32.8372 39.6231 32.6587 39.7616 32.4433C39.9 32.2279 39.9819 31.9823 40 31.7283V24.3828C39.9923 24.1182 39.9153 23.8599 39.7763 23.6329C39.6374 23.4059 39.4412 23.2177 39.2067 23.0865ZM30.7193 35.0739L28.037 33.5925V27.0494L30.7193 28.4815V35.0739ZM31.5 27.1482L28.8807 25.7408L34.9378 22.4446L37.5696 23.9013L31.5 27.1482ZM31.5 20.5434L33.3385 21.5557L27.2437 24.8766L25.4304 23.9013L31.5 20.5434ZM24.5741 25.1976L26.463 26.2099V32.7159L24.5741 31.7283V25.1976ZM32.2807 35.0739V28.4815L38.4259 25.1976V31.7283L32.2807 35.0739Z" fill="white"/>
</svg>
