<svg width="60" height="60" viewBox="0 0 60 60" fill="none" xmlns="http://www.w3.org/2000/svg">
<path d="M29.8507 50.7636C29.8507 51.1656 29.5241 51.4916 29.1213 51.4916H20.2881C19.0265 51.4916 18 50.4671 18 49.2078V27.1184C18 23.6618 20.095 20.5398 23.2644 19.1935V12C22.9942 11.7462 22.8315 11.3878 22.8315 11.0022V9.3699C22.8315 8.78801 23.202 8.26801 23.7534 8.07592C23.8998 8.02538 24.0509 8 24.2041 8H29.0482C29.2014 8 29.3525 8.02538 29.4973 8.0755C30.0503 8.26822 30.4207 8.78822 30.4207 9.37V11.0023C30.4207 11.3879 30.2581 11.7462 29.9879 12.0001V19.1936C31.7438 19.9399 33.2105 21.2498 34.1535 22.9257C34.3507 23.2763 34.2259 23.7201 33.8746 23.917C33.5233 24.1136 33.0788 23.9891 32.8815 23.6387C32.0256 22.1175 30.652 20.9588 29.0136 20.3762C28.723 20.2729 28.5291 19.9982 28.5291 19.6904V12.3722H28.3633C27.9605 12.3722 27.6339 12.0462 27.6339 11.6442C27.6339 11.2421 27.9605 10.9162 28.3633 10.9162H28.9619V9.4559H24.2903V10.9162H24.8891C25.2919 10.9162 25.6185 11.2421 25.6185 11.6442C25.6185 12.0462 25.2919 12.3722 24.8891 12.3722H24.7232V19.6903C24.7232 19.9981 24.5292 20.2727 24.2387 20.3761C21.3796 21.393 19.4587 24.1026 19.4587 27.1184V49.2077C19.4587 49.6642 19.8307 50.0355 20.288 50.0355H29.1212C29.5241 50.0356 29.8507 50.3614 29.8507 50.7636ZM23.6326 22.6866C22.0634 23.5793 21.0885 25.2467 21.0885 27.0381C21.0885 28.8295 21.0885 46.8436 21.0885 46.8436C21.0885 47.2456 21.415 47.5716 21.8179 47.5716C22.2207 47.5716 22.5473 47.2456 22.5473 46.8436V27.0381C22.5473 25.7686 23.2399 24.5859 24.3549 23.9515C24.7049 23.7524 24.8269 23.3079 24.6274 22.9586C24.428 22.6093 23.9825 22.4874 23.6326 22.6866ZM38.5592 35.6609C38.1591 35.7086 37.8736 36.0708 37.9214 36.4699C37.9998 37.1261 37.7775 37.786 37.2951 38.3282C36.6959 39.0019 35.7966 39.4042 34.8898 39.4042C34.4869 39.4042 34.1604 39.7302 34.1604 40.1322C34.1604 40.5343 34.4869 40.8602 34.8898 40.8602C36.2073 40.8602 37.5142 40.275 38.3861 39.2948C39.149 38.437 39.4984 37.3726 39.3698 36.2975C39.3222 35.8981 38.9594 35.6129 38.5592 35.6609ZM40.4209 41.2703C39.2031 42.6396 37.4482 43.5215 35.6192 43.7091V51.5439H37.9415C38.3443 51.5439 38.6709 51.8698 38.6709 52.2719C38.6709 52.674 38.3443 52.9999 37.9415 52.9999H34.9022C34.898 53 34.8939 53 34.8898 53C34.8856 53 34.8815 53 34.8774 52.9999H31.8381C31.4352 52.9999 31.1087 52.674 31.1087 52.2719C31.1087 51.8698 31.4352 51.5439 31.8381 51.5439H34.1605V43.7091C32.3313 43.5215 30.5764 42.6395 29.3585 41.2702C28.1665 39.9296 27.62 38.2707 27.8202 36.5989L28.3523 32.1525C28.3532 32.1428 28.3544 32.1331 28.3557 32.1236L28.9569 27.0989C29.0007 26.7328 29.3118 26.4572 29.6812 26.4572H40.0985C40.4679 26.4572 40.7789 26.7328 40.8228 27.0989L41.9596 36.599C42.1595 38.2708 41.613 39.9299 40.4209 41.2703ZM40.5109 36.7715L39.4509 27.9131H30.3286L29.8551 31.8699C31.8177 33.0547 35.0886 32.9909 37.8405 31.6717C38.2034 31.4975 38.6394 31.6502 38.8138 32.0126C38.9883 32.375 38.8353 32.81 38.4722 32.9841C35.4967 34.4106 32.0645 34.5468 29.6698 33.4196L29.2687 36.7714C29.1188 38.0243 29.5381 39.2786 30.4495 40.3035C31.556 41.5477 33.2159 42.2904 34.8897 42.2904C36.5635 42.2904 38.2234 41.5477 39.3299 40.3036C40.2414 39.2789 40.6609 38.0244 40.5109 36.7715Z" fill="white"/>
<path d="M39.4509 27.9131L40.5109 36.7715C40.6609 38.0244 40.2414 39.2789 39.3299 40.3036C38.2234 41.5477 36.5635 42.2904 34.8897 42.2904C33.2159 42.2904 31.556 41.5477 30.4495 40.3035C29.5381 39.2786 29.1188 38.0243 29.2687 36.7714L29.6698 33.4196C32.0645 34.5468 35.4967 34.4106 38.4722 32.9841C38.8353 32.81 38.9883 32.375 38.8138 32.0126C38.6394 31.6502 38.2034 31.4975 37.8405 31.6717C35.0886 32.9909 31.8177 33.0547 29.8551 31.8699L30.3286 27.9131H39.4509Z" fill="#EBB700"/>
</svg>
