<svg width="60" height="60" viewBox="0 0 60 60" fill="none" xmlns="http://www.w3.org/2000/svg">
<path d="M46.1819 15.0814C42.2611 11.1606 37.0459 9 31.5047 9C25.861 9 20.5806 11.2258 16.6412 15.2676C16.2128 15.7053 16.2221 16.4131 16.6599 16.8508C17.0976 17.2792 17.8053 17.2699 18.2431 16.8322C21.7633 13.2281 26.4664 11.2444 31.5047 11.2444C41.721 11.2351 50.0281 19.5423 50.0281 29.7586C50.0281 39.9749 41.721 48.282 31.5047 48.282C21.2884 48.282 12.9812 39.9749 12.9812 29.7586V29.5257L14.8252 31.3697C15.0394 31.5839 15.3281 31.6956 15.6168 31.6956C15.9055 31.6956 16.1849 31.5839 16.4084 31.3697C16.8461 30.932 16.8461 30.2242 16.4084 29.7865L12.6646 26.0334C12.2269 25.5957 11.5191 25.5957 11.0814 26.0334L7.32828 29.7865C6.89057 30.2242 6.89057 30.932 7.32828 31.3697C7.76599 31.8074 8.47377 31.8074 8.91148 31.3697L10.7554 29.5257V29.7586C10.7554 35.2998 12.916 40.515 16.8368 44.4358C20.7576 48.3565 25.9728 50.5171 31.514 50.5171C37.0552 50.5171 42.2705 48.3565 46.1912 44.4358C50.112 40.515 52.2632 35.2998 52.2632 29.7586C52.2632 24.2174 50.1026 19.0021 46.1819 15.0814Z" fill="white"/>
<path d="M37.4464 22.2058L23.7191 35.9238C23.2814 36.3615 23.2814 37.0693 23.7191 37.507C23.9333 37.7212 24.222 37.8329 24.5107 37.8329C24.7994 37.8329 25.0788 37.7212 25.3023 37.507L39.0296 23.7797C39.4673 23.342 39.4673 22.6342 39.0296 22.1965C38.5918 21.7681 37.8841 21.7681 37.4464 22.2058Z" fill="#EBB700"/>
<path d="M37.1755 32.0217C36.5702 32.0217 36.0018 32.2586 35.5755 32.6849C35.1492 33.1112 34.9123 33.6796 34.9123 34.2849C34.9123 34.8902 35.1492 35.4586 35.5755 35.8849C36.0018 36.3112 36.5702 36.5481 37.1755 36.5481C37.7808 36.5481 38.3492 36.3112 38.7755 35.8849C39.2018 35.4586 39.4387 34.8902 39.4387 34.2849C39.4387 33.6796 39.2018 33.1112 38.7755 32.6849C38.3439 32.2586 37.7808 32.0217 37.1755 32.0217Z" fill="#EBB700"/>
<path d="M33.8516 31.4442C32.2963 32.9994 32.2963 35.5419 33.8516 37.0971C34.6059 37.8515 35.6117 38.2706 36.6827 38.2706C37.7537 38.2706 38.7595 37.8515 39.5138 37.0971C41.0691 35.5419 41.0691 32.9994 39.5138 31.4442C38.7595 30.6898 37.7537 30.2708 36.6827 30.2708C35.6117 30.2708 34.6152 30.6898 33.8516 31.4442ZM37.9306 35.5233C37.5954 35.8585 37.1577 36.0355 36.6827 36.0355C36.2077 36.0355 35.77 35.8492 35.4348 35.5233C34.7456 34.8341 34.7456 33.7165 35.4348 33.0274C35.77 32.6921 36.2077 32.5152 36.6827 32.5152C37.1577 32.5152 37.5954 32.7014 37.9306 33.0274C38.6198 33.7165 38.6198 34.8341 37.9306 35.5233Z" fill="white"/>
<path d="M26.3538 22.9691C25.8181 22.9691 25.3151 23.1787 24.9378 23.556C24.5605 23.9333 24.3509 24.4364 24.3509 24.972C24.3509 25.5077 24.5605 26.0107 24.9378 26.388C25.3151 26.7653 25.8181 26.9749 26.3538 26.9749C26.8895 26.9749 27.3925 26.7653 27.7698 26.388C28.1471 26.0107 28.3567 25.5077 28.3567 24.972C28.3567 24.4364 28.1471 23.9333 27.7698 23.556C27.3879 23.1787 26.8895 22.9691 26.3538 22.9691Z" fill="#EBB700"/>
<path d="M26.3639 21.2092C25.293 21.2092 24.2872 21.6283 23.5328 22.3827C22.7785 23.137 22.3594 24.1428 22.3594 25.2138C22.3594 26.2848 22.7785 27.2906 23.5328 28.0449C24.2872 28.7993 25.293 29.2184 26.3639 29.2184C27.4349 29.2184 28.4407 28.7993 29.1951 28.0449C29.9494 27.2906 30.3685 26.2848 30.3685 25.2138C30.3685 24.1428 29.9494 23.137 29.1951 22.3827C28.4314 21.6283 27.4349 21.2092 26.3639 21.2092ZM27.6119 26.4617C27.2766 26.797 26.8389 26.9739 26.3639 26.9739C25.889 26.9739 25.4513 26.7877 25.116 26.4617C24.7807 26.1265 24.6038 25.6888 24.6038 25.2138C24.6038 24.7388 24.7901 24.3011 25.116 23.9659C25.4513 23.6306 25.889 23.4536 26.3639 23.4536C26.8389 23.4536 27.2766 23.6399 27.6119 23.9659C27.9471 24.3011 28.1241 24.7388 28.1241 25.2138C28.1241 25.6794 27.9471 26.1265 27.6119 26.4617Z" fill="white"/>
</svg>
