<svg width="40" height="40" viewBox="0 0 40 40" fill="none" xmlns="http://www.w3.org/2000/svg">
<g clip-path="url(#clip0_101_2)">
<path d="M38.9 11.9C38.1 11 37 10.4 35.8 10.4H20.4C19.9 10.4 19.4 10.8 19.4 11.4C19.4 12 19.9 12.4 20.4 12.4H35.8C36.4 12.4 37 12.7 37.4 13.1C37.8 13.6 38 14.2 37.8 14.8L36.9 19.8H25.9C25.4 19.8 24.9 20.2 24.9 20.8C24.9 21.4 25.4 21.8 25.9 21.8H36.6L35.7 26.6C35.6 27.3 34.9 27.8 34.2 27.8H15C14.3 27.8 13.7 27.3 13.5 26.6L9.6 4.89998C9.5 4.39998 9.1 4.09998 8.6 4.09998H0.900002C0.400002 4.09998 -0.0999985 4.49998 -0.0999985 5.09998C-0.0999985 5.69998 0.400002 6.09998 0.900002 6.09998H7.8L11.6 27.1C11.8 28.5 12.8 29.5 14.1 29.9C13.6 30.6 13.2 31.5 13.2 32.5C13.2 35 15.2 37 17.7 37C20.2 37 22.2 35 22.2 32.5C22.2 31.6 21.9 30.7 21.4 30H27.5C27 30.7 26.7 31.6 26.7 32.5C26.7 35 28.7 37 31.2 37C33.7 37 35.7 35 35.7 32.5C35.7 31.5 35.4 30.6 34.9 29.9C36.2 29.6 37.3 28.5 37.6 27.1L39.8 15.3C40 14.1 39.7 12.9 38.9 11.9ZM20.2 32.4C20.2 33.8 19.1 34.9 17.7 34.9C16.3 34.9 15.2 33.8 15.2 32.4C15.2 31 16.3 29.9 17.7 29.9C19.1 29.9 20.2 31 20.2 32.4ZM31.3 34.9C29.9 34.9 28.8 33.8 28.8 32.4C28.8 31 29.9 29.9 31.3 29.9C32.7 29.9 33.8 31 33.8 32.4C33.8 33.8 32.7 34.9 31.3 34.9Z" fill="#16181f"/>
</g>
<defs>
<clipPath id="clip0_101_2">
<rect width="40" height="40" fill=""/>
</clipPath>
</defs>
</svg>
