<svg width="162" height="62" viewBox="0 0 162 62" fill="none" xmlns="http://www.w3.org/2000/svg">
<path d="M26.2667 26.4542C26.8449 26.4542 27.4172 26.3792 27.9836 26.2292C28.55 26.0677 29.0574 25.837 29.5058 25.5371C29.9542 25.2257 30.3141 24.8508 30.5855 24.4125C30.8569 23.9626 30.9926 23.4435 30.9926 22.8552C30.9926 22.1516 30.8038 21.5287 30.4262 20.9865C30.0604 20.4329 29.5766 19.9311 28.9748 19.4812C28.373 19.0198 27.6827 18.5873 26.9039 18.1835C26.1369 17.7798 25.3522 17.3761 24.5498 16.9724C23.7474 16.5686 22.9569 16.1476 22.1781 15.7093C21.4111 15.2594 20.7267 14.7634 20.1249 14.2213C19.5231 13.6676 19.0334 13.0562 18.6558 12.3872C18.29 11.7066 18.1071 10.928 18.1071 10.0513C18.1071 9.17467 18.2723 8.36145 18.6027 7.61167C18.9449 6.8619 19.4405 6.21594 20.0895 5.67379C20.7385 5.12011 21.535 4.68754 22.479 4.3761C23.4348 4.06465 24.5262 3.90893 25.7534 3.90893C26.8626 3.90893 27.8538 4.02428 28.727 4.25498C29.6002 4.48568 30.3672 4.82596 31.028 5.27583C31.6888 5.7257 32.2493 6.27938 32.7095 6.93687C33.1697 7.59437 33.5413 8.35568 33.8245 9.22081L31.8068 10.1205C31.5708 9.41691 31.2699 8.77671 30.9041 8.19996C30.5383 7.61167 30.1017 7.1099 29.5943 6.69464C29.0869 6.27938 28.4969 5.96216 27.8243 5.743C27.1635 5.5123 26.4142 5.39695 25.5764 5.39695C24.833 5.39695 24.184 5.50076 23.6294 5.70839C23.0749 5.90449 22.6088 6.1698 22.2312 6.50431C21.8654 6.82729 21.5881 7.19641 21.3993 7.61167C21.2223 8.0154 21.1338 8.43066 21.1338 8.85746C21.1338 9.45728 21.3226 10.011 21.7002 10.5185C22.0778 11.0145 22.5793 11.4874 23.2047 11.9373C23.83 12.3756 24.538 12.8024 25.3286 13.2177C26.131 13.633 26.9452 14.054 27.7712 14.4808C28.5972 14.9076 29.4055 15.3517 30.1961 15.8131C30.9985 16.2745 31.7124 16.782 32.3378 17.3357C32.9632 17.8779 33.4646 18.4777 33.8422 19.1352C34.2198 19.7811 34.4086 20.5078 34.4086 21.3153C34.4086 22.2266 34.2316 23.0859 33.8776 23.8934C33.5236 24.6893 32.9927 25.3872 32.2847 25.987C31.5767 26.5753 30.6976 27.0424 29.6474 27.3885C28.5972 27.7345 27.3759 27.9076 25.9835 27.9076C24.8507 27.9076 23.8418 27.7865 22.9569 27.5442C22.0719 27.302 21.2872 26.9502 20.6028 26.4888C19.9302 26.0274 19.352 25.4679 18.8682 24.8104C18.3844 24.1414 17.9891 23.3801 17.6823 22.5265L19.7886 21.6787C20.0364 22.4284 20.3668 23.0975 20.7798 23.6857C21.2046 24.274 21.6943 24.7758 22.2489 25.1911C22.8035 25.5948 23.4171 25.9062 24.0896 26.1254C24.774 26.3446 25.4997 26.4542 26.2667 26.4542Z" fill="#BBBBBB"/>
<path d="M10.8556 11.1812L19.3955 33.1124L26.9003 13.3134L34.6422 33.1994L42.988 11.1812H45.3171L34.3187 40.2705H32.8954L25.822 22.2774L19.0505 40.2705H17.4115L6.04657 11.1812H10.8556Z" fill="white"/>
<path d="M1.31958 1L25.3182 60.2694" stroke="#3EC300"/>
<path d="M49.6805 1.72723L25.6818 60.9966" stroke="#3EC300"/>
<path d="M71.0985 35.9983L66.2205 23.4523H68.0565L72.7725 35.6023L76.9485 23.4523H78.8025L83.5185 35.6023L87.7125 23.4523H88.0185L83.6985 35.9983H81.8445L77.1285 23.8663L72.9525 35.9983H71.0985ZM89.4672 35.9983V22.6243H91.1772V32.2543C91.5552 30.0223 92.5272 26.7103 95.2632 26.7103C98.3952 26.7103 98.9532 29.2303 98.9532 31.8583V35.9983H97.2252V29.6263C97.2252 27.6643 96.3612 27.0163 95.2812 27.0163C91.6812 27.0163 91.1772 33.3883 91.1772 35.9983H89.4672ZM105.504 36.2863C102.102 36.2863 100.482 34.2523 100.482 31.4983C100.482 28.7443 102.264 26.7283 105.504 26.7283C109.284 26.7283 109.68 29.3383 109.68 32.3443H102.336C102.552 34.4503 103.614 35.9803 105.504 35.9803C107.142 35.9803 108.618 35.4943 109.77 34.4863L109.914 34.6663C109.608 34.9183 108.294 36.2863 105.504 36.2863ZM105.504 27.0163C102.876 27.0163 102.174 29.9503 102.318 32.0563H109.338C109.338 29.3383 108.816 27.0163 105.504 27.0163ZM114.81 36.2683C113.352 36.2683 110.994 36.0343 110.994 32.7223C110.994 31.3543 111.732 30.1483 113.334 29.7163L111.624 28.7803C112.326 27.5743 113.334 26.7463 116.484 26.7463C118.77 26.7463 120.606 27.2323 120.606 30.3463V35.9983H118.914V31.4803C118.518 33.8923 117.78 36.2683 114.81 36.2683ZM114.792 29.8243C113.712 29.8243 112.758 30.6523 112.758 32.9023C112.758 35.2603 113.712 35.9983 114.792 35.9983C116.394 35.9983 117.636 35.3503 118.302 32.8843C118.572 31.8943 118.788 30.8323 118.86 29.8243H114.792ZM113.64 29.6263C113.802 29.5723 114.324 29.5183 114.792 29.5183H118.896C118.896 27.7003 118.752 26.9803 116.484 26.9803C114.522 26.9803 113.802 28.1683 113.64 29.6263ZM122.782 27.2863H121.234V26.9983H122.782V23.4523H124.51V26.9983H128.704V27.2863H124.51V33.3883C124.51 35.3503 125.392 35.9983 126.472 35.9983C128.074 35.9983 129.244 34.7383 129.928 32.2723L130.216 32.3623C129.712 34.1803 128.668 36.2863 126.472 36.2863C122.818 36.2863 122.818 33.7663 122.8 31.1383L122.782 27.2863ZM132.838 35.7103H140.128V35.9983H131.11V23.4523H132.838V35.7103ZM144.819 36.2863C141.705 36.2863 141.129 33.7663 141.129 31.1383V26.9983H142.857V33.3883C142.857 35.3503 143.721 35.9983 144.801 35.9983C148.419 35.9983 148.923 29.6083 148.923 26.9983H150.615L150.633 35.9983H148.923V30.7423C148.545 32.9203 147.573 36.2863 144.819 36.2863ZM155.726 31.8583L152.072 26.9983H154.214L156.788 30.4363L159.362 26.9983H159.74L156.968 30.6883L160.946 35.9983H158.822L155.906 32.1103L152.99 35.9983H152.612L155.726 31.8583Z" fill="white"/>
</svg>
