<svg width="371" height="189" viewBox="0 0 371 189" fill="none" xmlns="http://www.w3.org/2000/svg">
<path d="M186.84 45.4874C187.85 45.4874 188.851 45.3564 189.841 45.0943C190.83 44.812 191.717 44.4088 192.501 43.8847C193.285 43.3403 193.914 42.6851 194.388 41.919C194.862 41.1328 195.099 40.2256 195.099 39.1974C195.099 37.9676 194.77 36.8789 194.11 35.9314C193.47 34.9637 192.625 34.0867 191.573 33.3005C190.521 32.4941 189.315 31.7381 187.954 31.0325C186.613 30.3268 185.242 29.6212 183.839 28.9156C182.437 28.21 181.055 27.4742 179.694 26.7081C178.353 25.9218 177.157 25.0549 176.106 24.1074C175.054 23.1397 174.198 22.0712 173.538 20.9019C172.899 19.7124 172.579 18.3516 172.579 16.8194C172.579 15.2873 172.868 13.866 173.445 12.5555C174.043 11.2451 174.909 10.1161 176.044 9.16861C177.178 8.20092 178.57 7.4449 180.22 6.90058C181.89 6.35625 183.798 6.08408 185.943 6.08408C187.881 6.08408 189.614 6.28569 191.14 6.68889C192.666 7.0921 194.006 7.68683 195.161 8.47308C196.316 9.25933 197.296 10.227 198.1 11.3762C198.904 12.5253 199.554 13.8559 200.049 15.3679L196.522 16.9404C196.11 15.7106 195.584 14.5917 194.945 13.5837C194.306 12.5555 193.542 11.6786 192.656 10.9528C191.769 10.227 190.738 9.67262 189.562 9.28957C188.407 8.88637 187.098 8.68476 185.633 8.68476C184.334 8.68476 183.2 8.86621 182.231 9.22909C181.261 9.57182 180.447 10.0355 179.787 10.6202C179.147 11.1846 178.663 11.8298 178.333 12.5555C178.024 13.2612 177.869 13.9869 177.869 14.7329C177.869 15.7812 178.199 16.7489 178.859 17.6359C179.519 18.5028 180.395 19.3294 181.488 20.1157C182.581 20.8817 183.819 21.6277 185.2 22.3534C186.603 23.0792 188.026 23.8151 189.469 24.561C190.913 25.3069 192.326 26.0831 193.707 26.8895C195.11 27.6959 196.358 28.583 197.451 29.5507C198.544 30.4982 199.42 31.5465 200.08 32.6957C200.74 33.8247 201.07 35.0948 201.07 36.506C201.07 38.0986 200.761 39.6006 200.142 41.0118C199.523 42.4029 198.595 43.6226 197.358 44.6709C196.12 45.6991 194.584 46.5156 192.748 47.1204C190.913 47.7252 188.778 48.0276 186.345 48.0276C184.365 48.0276 182.602 47.8159 181.055 47.3925C179.508 46.9692 178.137 46.3543 176.941 45.5479C175.765 44.7415 174.755 43.7637 173.909 42.6146C173.064 41.4453 172.373 40.1147 171.837 38.6228L175.518 37.141C175.951 38.4515 176.528 39.6208 177.25 40.6489C177.993 41.6771 178.848 42.5541 179.818 43.2798C180.787 43.9855 181.859 44.5298 183.035 44.9128C184.231 45.2959 185.499 45.4874 186.84 45.4874Z" fill="#BBBBBB"/>
<path d="M159.905 18.7943L174.831 57.1244L187.947 22.5208L201.478 57.2765L216.064 18.7943H220.135L200.913 69.6349H198.425L186.063 38.1875L174.228 69.6349H171.363L151.5 18.7943H159.905Z" fill="white"/>
<path d="M143.239 1L185.183 104.589" stroke="#3EC300" stroke-width="3"/>
<path d="M227.761 2.27102L185.817 105.86" stroke="#3EC300" stroke-width="3"/>
<mask id="path-5-outside-1_1_639" maskUnits="userSpaceOnUse" x="0.5" y="119.86" width="369" height="50" fill="black">
<rect fill="white" x="0.5" y="119.86" width="369" height="50"/>
<path d="M19.764 166.86L2.42 122.252H8.948L25.716 165.452L40.564 122.252H47.156L63.924 165.452L78.836 122.252H79.924L64.564 166.86H57.972L41.204 123.724L26.356 166.86H19.764ZM85.075 122.252H91.155V143.18H115.731V122.252H121.811V166.86H115.731V144.204H91.155V166.86H85.075V122.252ZM128.2 166.86V122.252H160.328V123.276H134.28V143.116H154.568V144.14H134.28V165.772H160.328V166.86H128.2ZM163.483 166.86L178.843 122.252H185.435L202.779 166.86H196.251L189.147 148.62H170.907L164.635 166.86H163.483ZM179.483 123.66L171.291 147.532H188.763L179.483 123.66ZM216.057 123.276H197.625V122.252H240.505V123.276H222.137V166.86H216.057V123.276ZM249.844 165.836H275.764V166.86H243.7V122.252H249.844V165.836ZM278.325 148.812V122.252H284.405V148.812C284.405 163.212 288.245 166.604 296.501 166.604C306.101 166.604 313.141 156.62 314.101 143.884V122.252H320.181V166.86H314.101V150.924C311.349 160.076 304.949 168.012 296.501 168.012C282.997 168.012 278.325 162.572 278.325 148.812ZM343.983 146.252L325.935 122.252H333.551L347.759 141.196L361.967 122.252H363.311L348.399 142.092L367.023 166.86H359.407L344.623 147.148L329.839 166.86H328.495L343.983 146.252Z"/>
</mask>
<path d="M19.764 166.86L2.42 122.252H8.948L25.716 165.452L40.564 122.252H47.156L63.924 165.452L78.836 122.252H79.924L64.564 166.86H57.972L41.204 123.724L26.356 166.86H19.764ZM85.075 122.252H91.155V143.18H115.731V122.252H121.811V166.86H115.731V144.204H91.155V166.86H85.075V122.252ZM128.2 166.86V122.252H160.328V123.276H134.28V143.116H154.568V144.14H134.28V165.772H160.328V166.86H128.2ZM163.483 166.86L178.843 122.252H185.435L202.779 166.86H196.251L189.147 148.62H170.907L164.635 166.86H163.483ZM179.483 123.66L171.291 147.532H188.763L179.483 123.66ZM216.057 123.276H197.625V122.252H240.505V123.276H222.137V166.86H216.057V123.276ZM249.844 165.836H275.764V166.86H243.7V122.252H249.844V165.836ZM278.325 148.812V122.252H284.405V148.812C284.405 163.212 288.245 166.604 296.501 166.604C306.101 166.604 313.141 156.62 314.101 143.884V122.252H320.181V166.86H314.101V150.924C311.349 160.076 304.949 168.012 296.501 168.012C282.997 168.012 278.325 162.572 278.325 148.812ZM343.983 146.252L325.935 122.252H333.551L347.759 141.196L361.967 122.252H363.311L348.399 142.092L367.023 166.86H359.407L344.623 147.148L329.839 166.86H328.495L343.983 146.252Z" fill="white"/>
<path d="M19.764 166.86L18.832 167.222L19.0799 167.86H19.764V166.86ZM2.42 122.252V121.252H0.958264L1.48797 122.614L2.42 122.252ZM8.948 122.252L9.88024 121.89L9.63254 121.252H8.948V122.252ZM25.716 165.452L24.7838 165.814L25.773 168.363L26.6617 165.777L25.716 165.452ZM40.564 122.252V121.252H39.8503L39.6183 121.927L40.564 122.252ZM47.156 122.252L48.0882 121.89L47.8405 121.252H47.156V122.252ZM63.924 165.452L62.9918 165.814L63.979 168.357L64.8693 165.778L63.924 165.452ZM78.836 122.252V121.252H78.1233L77.8907 121.926L78.836 122.252ZM79.924 122.252L80.8695 122.578L81.326 121.252H79.924V122.252ZM64.564 166.86V167.86H65.2773L65.5095 167.186L64.564 166.86ZM57.972 166.86L57.0399 167.222L57.2878 167.86H57.972V166.86ZM41.204 123.724L42.1361 123.362L41.147 120.817L40.2584 123.399L41.204 123.724ZM26.356 166.86V167.86H27.0694L27.3016 167.185L26.356 166.86ZM20.696 166.498L3.35203 121.89L1.48797 122.614L18.832 167.222L20.696 166.498ZM2.42 123.252H8.948V121.252H2.42V123.252ZM8.01576 122.614L24.7838 165.814L26.6482 165.09L9.88024 121.89L8.01576 122.614ZM26.6617 165.777L41.5097 122.577L39.6183 121.927L24.7703 165.127L26.6617 165.777ZM40.564 123.252H47.156V121.252H40.564V123.252ZM46.2238 122.614L62.9918 165.814L64.8562 165.09L48.0882 121.89L46.2238 122.614ZM64.8693 165.778L79.7813 122.578L77.8907 121.926L62.9787 165.126L64.8693 165.778ZM78.836 123.252H79.924V121.252H78.836V123.252ZM78.9785 121.926L63.6185 166.534L65.5095 167.186L80.8695 122.578L78.9785 121.926ZM64.564 165.86H57.972V167.86H64.564V165.86ZM58.9041 166.498L42.1361 123.362L40.2719 124.086L57.0399 167.222L58.9041 166.498ZM40.2584 123.399L25.4104 166.535L27.3016 167.185L42.1496 124.049L40.2584 123.399ZM26.356 165.86H19.764V167.86H26.356V165.86ZM85.075 122.252V121.252H84.075V122.252H85.075ZM91.155 122.252H92.155V121.252H91.155V122.252ZM91.155 143.18H90.155V144.18H91.155V143.18ZM115.731 143.18V144.18H116.731V143.18H115.731ZM115.731 122.252V121.252H114.731V122.252H115.731ZM121.811 122.252H122.811V121.252H121.811V122.252ZM121.811 166.86V167.86H122.811V166.86H121.811ZM115.731 166.86H114.731V167.86H115.731V166.86ZM115.731 144.204H116.731V143.204H115.731V144.204ZM91.155 144.204V143.204H90.155V144.204H91.155ZM91.155 166.86V167.86H92.155V166.86H91.155ZM85.075 166.86H84.075V167.86H85.075V166.86ZM85.075 123.252H91.155V121.252H85.075V123.252ZM90.155 122.252V143.18H92.155V122.252H90.155ZM91.155 144.18H115.731V142.18H91.155V144.18ZM116.731 143.18V122.252H114.731V143.18H116.731ZM115.731 123.252H121.811V121.252H115.731V123.252ZM120.811 122.252V166.86H122.811V122.252H120.811ZM121.811 165.86H115.731V167.86H121.811V165.86ZM116.731 166.86V144.204H114.731V166.86H116.731ZM115.731 143.204H91.155V145.204H115.731V143.204ZM90.155 144.204V166.86H92.155V144.204H90.155ZM91.155 165.86H85.075V167.86H91.155V165.86ZM86.075 166.86V122.252H84.075V166.86H86.075ZM128.2 166.86H127.2V167.86H128.2V166.86ZM128.2 122.252V121.252H127.2V122.252H128.2ZM160.328 122.252H161.328V121.252H160.328V122.252ZM160.328 123.276V124.276H161.328V123.276H160.328ZM134.28 123.276V122.276H133.28V123.276H134.28ZM134.28 143.116H133.28V144.116H134.28V143.116ZM154.568 143.116H155.568V142.116H154.568V143.116ZM154.568 144.14V145.14H155.568V144.14H154.568ZM134.28 144.14V143.14H133.28V144.14H134.28ZM134.28 165.772H133.28V166.772H134.28V165.772ZM160.328 165.772H161.328V164.772H160.328V165.772ZM160.328 166.86V167.86H161.328V166.86H160.328ZM129.2 166.86V122.252H127.2V166.86H129.2ZM128.2 123.252H160.328V121.252H128.2V123.252ZM159.328 122.252V123.276H161.328V122.252H159.328ZM160.328 122.276H134.28V124.276H160.328V122.276ZM133.28 123.276V143.116H135.28V123.276H133.28ZM134.28 144.116H154.568V142.116H134.28V144.116ZM153.568 143.116V144.14H155.568V143.116H153.568ZM154.568 143.14H134.28V145.14H154.568V143.14ZM133.28 144.14V165.772H135.28V144.14H133.28ZM134.28 166.772H160.328V164.772H134.28V166.772ZM159.328 165.772V166.86H161.328V165.772H159.328ZM160.328 165.86H128.2V167.86H160.328V165.86ZM163.482 166.86L162.537 166.534L162.081 167.86H163.482V166.86ZM178.842 122.252V121.252H178.129L177.897 121.926L178.842 122.252ZM185.435 122.252L186.367 121.89L186.119 121.252H185.435V122.252ZM202.779 166.86V167.86H204.24L203.711 166.498L202.779 166.86ZM196.251 166.86L195.319 167.223L195.567 167.86H196.251V166.86ZM189.146 148.62L190.078 148.257L189.83 147.62H189.146V148.62ZM170.906 148.62V147.62H170.193L169.961 148.295L170.906 148.62ZM164.635 166.86V167.86H165.348L165.58 167.185L164.635 166.86ZM179.482 123.66L180.415 123.298L179.424 120.75L178.537 123.335L179.482 123.66ZM171.29 147.532L170.345 147.207L169.89 148.532H171.29V147.532ZM188.762 147.532V148.532H190.224L189.695 147.17L188.762 147.532ZM164.428 167.186L179.788 122.578L177.897 121.926L162.537 166.534L164.428 167.186ZM178.842 123.252H185.435V121.252H178.842V123.252ZM184.502 122.614L201.846 167.222L203.711 166.498L186.367 121.89L184.502 122.614ZM202.779 165.86H196.251V167.86H202.779V165.86ZM197.182 166.497L190.078 148.257L188.215 148.983L195.319 167.223L197.182 166.497ZM189.146 147.62H170.906V149.62H189.146V147.62ZM169.961 148.295L163.689 166.535L165.58 167.185L171.852 148.945L169.961 148.295ZM164.635 165.86H163.482V167.86H164.635V165.86ZM178.537 123.335L170.345 147.207L172.236 147.857L180.428 123.985L178.537 123.335ZM171.29 148.532H188.762V146.532H171.29V148.532ZM189.695 147.17L180.415 123.298L178.55 124.022L187.83 147.894L189.695 147.17ZM216.057 123.276H217.057V122.276H216.057V123.276ZM197.625 123.276H196.625V124.276H197.625V123.276ZM197.625 122.252V121.252H196.625V122.252H197.625ZM240.505 122.252H241.505V121.252H240.505V122.252ZM240.505 123.276V124.276H241.505V123.276H240.505ZM222.137 123.276V122.276H221.137V123.276H222.137ZM222.137 166.86V167.86H223.137V166.86H222.137ZM216.057 166.86H215.057V167.86H216.057V166.86ZM216.057 122.276H197.625V124.276H216.057V122.276ZM198.625 123.276V122.252H196.625V123.276H198.625ZM197.625 123.252H240.505V121.252H197.625V123.252ZM239.505 122.252V123.276H241.505V122.252H239.505ZM240.505 122.276H222.137V124.276H240.505V122.276ZM221.137 123.276V166.86H223.137V123.276H221.137ZM222.137 165.86H216.057V167.86H222.137V165.86ZM217.057 166.86V123.276H215.057V166.86H217.057ZM249.844 165.836H248.844V166.836H249.844V165.836ZM275.764 165.836H276.764V164.836H275.764V165.836ZM275.764 166.86V167.86H276.764V166.86H275.764ZM243.7 166.86H242.7V167.86H243.7V166.86ZM243.7 122.252V121.252H242.7V122.252H243.7ZM249.844 122.252H250.844V121.252H249.844V122.252ZM249.844 166.836H275.764V164.836H249.844V166.836ZM274.764 165.836V166.86H276.764V165.836H274.764ZM275.764 165.86H243.7V167.86H275.764V165.86ZM244.7 166.86V122.252H242.7V166.86H244.7ZM243.7 123.252H249.844V121.252H243.7V123.252ZM248.844 122.252V165.836H250.844V122.252H248.844ZM278.325 122.252V121.252H277.325V122.252H278.325ZM284.405 122.252H285.405V121.252H284.405V122.252ZM314.101 143.884L315.098 143.959L315.101 143.922V143.884H314.101ZM314.101 122.252V121.252H313.101V122.252H314.101ZM320.181 122.252H321.181V121.252H320.181V122.252ZM320.181 166.86V167.86H321.181V166.86H320.181ZM314.101 166.86H313.101V167.86H314.101V166.86ZM314.101 150.924H315.101L313.143 150.636L314.101 150.924ZM279.325 148.812V122.252H277.325V148.812H279.325ZM278.325 123.252H284.405V121.252H278.325V123.252ZM283.405 122.252V148.812H285.405V122.252H283.405ZM283.405 148.812C283.405 156.037 284.354 160.78 286.558 163.709C288.833 166.734 292.259 167.604 296.501 167.604V165.604C292.487 165.604 289.865 164.778 288.156 162.507C286.376 160.14 285.405 155.987 285.405 148.812H283.405ZM296.501 167.604C301.683 167.604 306.116 164.9 309.34 160.622C312.556 156.352 314.607 150.479 315.098 143.959L313.104 143.809C312.635 150.025 310.686 155.512 307.742 159.418C304.806 163.316 300.919 165.604 296.501 165.604V167.604ZM315.101 143.884V122.252H313.101V143.884H315.101ZM314.101 123.252H320.181V121.252H314.101V123.252ZM319.181 122.252V166.86H321.181V122.252H319.181ZM320.181 165.86H314.101V167.86H320.181V165.86ZM315.101 166.86V150.924H313.101V166.86H315.101ZM313.143 150.636C311.803 155.095 309.583 159.217 306.715 162.208C303.853 165.192 300.387 167.012 296.501 167.012V169.012C301.063 169.012 305.021 166.864 308.159 163.592C311.29 160.327 313.647 155.905 315.059 151.212L313.143 150.636ZM296.501 167.012C289.846 167.012 285.654 165.665 283.082 162.892C280.493 160.099 279.325 155.627 279.325 148.812H277.325C277.325 155.757 278.493 160.885 281.616 164.252C284.756 167.639 289.652 169.012 296.501 169.012V167.012ZM343.983 146.252L344.782 146.853L345.234 146.252L344.782 145.651L343.983 146.252ZM325.935 122.252V121.252H323.932L325.136 122.853L325.935 122.252ZM333.551 122.252L334.351 121.652L334.051 121.252H333.551V122.252ZM347.759 141.196L346.959 141.796L347.759 142.863L348.559 141.796L347.759 141.196ZM361.967 122.252V121.252H361.467L361.167 121.652L361.967 122.252ZM363.311 122.252L364.11 122.853L365.314 121.252H363.311V122.252ZM348.399 142.092L347.6 141.491L347.148 142.092L347.6 142.693L348.399 142.092ZM367.023 166.86V167.86H369.026L367.822 166.259L367.023 166.86ZM359.407 166.86L358.607 167.46L358.907 167.86H359.407V166.86ZM344.623 147.148L345.423 146.548L344.623 145.481L343.823 146.548L344.623 147.148ZM329.839 166.86V167.86H330.339L330.639 167.46L329.839 166.86ZM328.495 166.86L327.696 166.259L326.493 167.86H328.495V166.86ZM344.782 145.651L326.734 121.651L325.136 122.853L343.184 146.853L344.782 145.651ZM325.935 123.252H333.551V121.252H325.935V123.252ZM332.751 122.852L346.959 141.796L348.559 140.596L334.351 121.652L332.751 122.852ZM348.559 141.796L362.767 122.852L361.167 121.652L346.959 140.596L348.559 141.796ZM361.967 123.252H363.311V121.252H361.967V123.252ZM362.512 121.651L347.6 141.491L349.198 142.693L364.11 122.853L362.512 121.651ZM347.6 142.693L366.224 167.461L367.822 166.259L349.198 141.491L347.6 142.693ZM367.023 165.86H359.407V167.86H367.023V165.86ZM360.207 166.26L345.423 146.548L343.823 147.748L358.607 167.46L360.207 166.26ZM343.823 146.548L329.039 166.26L330.639 167.46L345.423 147.748L343.823 146.548ZM329.839 165.86H328.495V167.86H329.839V165.86ZM329.294 167.461L344.782 146.853L343.184 145.651L327.696 166.259L329.294 167.461Z" fill="white" mask="url(#path-5-outside-1_1_639)"/>
</svg>
