<?xml version="1.0" encoding="UTF-8"?> <svg xmlns="http://www.w3.org/2000/svg" width="212" height="57" viewBox="0 0 212 57" fill="none"><path d="M21.0973 44.5038C25.7931 45.4428 26.8197 42.1378 26.8197 42.1378C26.8197 42.1378 23.3049 37.1098 18.8634 36.7858C14.4218 36.4619 13.1409 39.1519 13.1409 39.1519C13.1409 39.1519 16.4014 43.5649 21.0973 44.5038Z" fill="#EBB700"></path><path d="M17.7273 35.1066C22.0675 35.9868 23.0095 32.9226 23.0095 32.9226C23.0095 32.9226 19.7525 28.2509 15.6485 27.9418C11.5444 27.6326 10.3662 30.1258 10.3662 30.1258C10.3662 30.1258 13.3871 34.2264 17.7273 35.1066Z" fill="#EBB700"></path><path d="M16.6686 26.4912C19.942 27.1953 20.6303 24.8532 20.6303 24.8532C20.6303 24.8532 18.1467 21.2506 15.055 20.9858C11.9633 20.7209 11.0933 22.6238 11.0933 22.6238C11.0933 22.6238 13.3953 25.7871 16.6686 26.4912Z" fill="#EBB700"></path><path d="M15.3415 19.5414C17.5479 20.0694 17.9826 18.4494 17.9826 18.4494C17.9826 18.4494 16.2724 15.9159 14.1931 15.6954C12.1138 15.4749 11.5519 16.7874 11.5519 16.7874C11.5519 16.7874 13.135 19.0134 15.3415 19.5414Z" fill="#EBB700"></path><path d="M33.0911 41.0993C30.4295 45.0803 27.3686 43.4654 27.3686 43.4654C27.3686 43.4654 26.3063 37.4234 29.2222 34.0574C32.1381 30.6913 34.9447 31.6913 34.9447 31.6913C34.9447 31.6913 35.7527 37.1183 33.0911 41.0993Z" fill="#EBB700"></path><path d="M28.5663 31.4023C26.115 35.0906 23.284 33.5864 23.284 33.5864C23.284 33.5864 22.2908 27.9787 24.9782 24.8615C27.6656 21.7443 30.2605 22.6775 30.2605 22.6775C30.2605 22.6775 31.0175 27.714 28.5663 31.4023Z" fill="#EBB700"></path><path d="M24.0431 21.8875C22.2228 24.6977 20.0814 23.5255 20.0814 23.5255C20.0814 23.5255 19.2957 19.221 21.2976 16.8501C23.2995 14.4792 25.2593 15.2121 25.2593 15.2121C25.2593 15.2121 25.8634 19.0774 24.0431 21.8875Z" fill="#EBB700"></path><path d="M19.2573 16.3677C18.068 18.2997 16.6162 17.4598 16.6162 17.4598C16.6162 17.4598 16.0379 14.4583 17.3543 12.8338C18.6708 11.2092 19.9954 11.7417 19.9954 11.7417C19.9954 11.7417 20.4466 14.4357 19.2573 16.3677Z" fill="#EBB700"></path><path d="M11.5519 16.7874C11.5519 16.7874 13.135 19.0134 15.3415 19.5414C17.5479 20.0694 17.9826 18.4494 17.9826 18.4494C17.9826 18.4494 16.2724 15.9159 14.1931 15.6954C12.1138 15.4749 11.5519 16.7874 11.5519 16.7874ZM11.5519 16.7874C8.53446 14.8427 6.69416 13.054 5 10M19.9954 11.7417C19.9954 11.7417 20.4466 14.4357 19.2573 16.3677C18.068 18.2997 16.6162 17.4598 16.6162 17.4598C16.6162 17.4598 16.0379 14.4583 17.3543 12.8338C18.6708 11.2092 19.9954 11.7417 19.9954 11.7417ZM19.9954 11.7417C19.9059 9.22081 18.0591 6.68446 14.1931 4M39.2892 49.1443C39.2892 49.1443 33.4959 48.7803 29.7224 46.4774C25.9489 44.1745 21.1482 25.74 19.1995 21.027C17.2508 16.314 8.35744 6.74612 8.35744 6.74612M26.8197 42.1378C26.8197 42.1378 25.7931 45.4428 21.0973 44.5038C16.4014 43.5649 13.1409 39.1519 13.1409 39.1519C13.1409 39.1519 14.4218 36.4619 18.8634 36.7858C23.3049 37.1098 26.8197 42.1378 26.8197 42.1378ZM23.0095 32.9226C23.0095 32.9226 22.0675 35.9868 17.7273 35.1066C13.3871 34.2264 10.3662 30.1258 10.3662 30.1258C10.3662 30.1258 11.5444 27.6326 15.6485 27.9418C19.7525 28.2509 23.0095 32.9226 23.0095 32.9226ZM20.6303 24.8532C20.6303 24.8532 19.942 27.1953 16.6686 26.4912C13.3953 25.7871 11.0933 22.6238 11.0933 22.6238C11.0933 22.6238 11.9633 20.7209 15.055 20.9858C18.1467 21.2506 20.6303 24.8532 20.6303 24.8532ZM27.3686 43.4654C27.3686 43.4654 30.4295 45.0803 33.0911 41.0993C35.7527 37.1183 34.9447 31.6913 34.9447 31.6913C34.9447 31.6913 32.1381 30.6913 29.2222 34.0574C26.3063 37.4234 27.3686 43.4654 27.3686 43.4654ZM23.284 33.5864C23.284 33.5864 26.115 35.0906 28.5663 31.4023C31.0175 27.714 30.2605 22.6775 30.2605 22.6775C30.2605 22.6775 27.6656 21.7443 24.9782 24.8615C22.2908 27.9787 23.284 33.5864 23.284 33.5864ZM20.0814 23.5255C20.0814 23.5255 22.2228 24.6977 24.0431 21.8875C25.8634 19.0774 25.2593 15.2121 25.2593 15.2121C25.2593 15.2121 23.2995 14.4792 21.2976 16.8501C19.2957 19.221 20.0814 23.5255 20.0814 23.5255Z" stroke="#EBB700" stroke-linecap="round"></path><path d="M55.72 19V31.39C55.72 34.31 54.93 36.54 53.35 38.08C51.77 39.6 49.53 40.36 46.63 40.36C45.19 40.36 43.9 40.15 42.76 39.73C41.64 39.31 40.72 38.72 40 37.96C39.26 38.72 38.33 39.31 37.21 39.73C36.09 40.15 34.82 40.36 33.4 40.36C30.5 40.36 28.26 39.6 26.68 38.08C25.1 36.54 24.31 34.31 24.31 31.39V19H29.17V31.24C29.17 32.94 29.52 34.2 30.22 35.02C30.92 35.82 31.96 36.22 33.34 36.22C36.16 36.22 37.57 34.56 37.57 31.24V19H42.43V31.24C42.43 34.56 43.85 36.22 46.69 36.22C49.45 36.22 50.83 34.56 50.83 31.24V19H55.72ZM70.0052 23.62C72.0052 23.62 73.6152 24.22 74.8352 25.42C76.0752 26.62 76.6952 28.4 76.6952 30.76V40H72.0152V31.48C72.0152 30.2 71.7352 29.25 71.1752 28.63C70.6152 27.99 69.8052 27.67 68.7452 27.67C67.5652 27.67 66.6252 28.04 65.9252 28.78C65.2252 29.5 64.8752 30.58 64.8752 32.02V40H60.1952V17.74H64.8752V25.54C65.4952 24.92 66.2452 24.45 67.1252 24.13C68.0052 23.79 68.9652 23.62 70.0052 23.62ZM89.2432 36.49C90.0832 36.49 90.8232 36.37 91.4632 36.13C92.1232 35.87 92.7332 35.47 93.2932 34.93L95.7832 37.63C94.2632 39.37 92.0432 40.24 89.1232 40.24C87.3032 40.24 85.6932 39.89 84.2932 39.19C82.8932 38.47 81.8132 37.48 81.0532 36.22C80.2932 34.96 79.9132 33.53 79.9132 31.93C79.9132 30.35 80.2832 28.93 81.0232 27.67C81.7832 26.39 82.8132 25.4 84.1132 24.7C85.4332 23.98 86.9132 23.62 88.5532 23.62C90.0932 23.62 91.4932 23.95 92.7532 24.61C94.0132 25.25 95.0132 26.19 95.7532 27.43C96.5132 28.65 96.8932 30.1 96.8932 31.78L84.9532 34.09C85.2932 34.89 85.8232 35.49 86.5432 35.89C87.2832 36.29 88.1832 36.49 89.2432 36.49ZM88.5532 27.16C87.3732 27.16 86.4132 27.54 85.6732 28.3C84.9332 29.06 84.5432 30.11 84.5032 31.45L92.3632 29.92C92.1432 29.08 91.6932 28.41 91.0132 27.91C90.3332 27.41 89.5132 27.16 88.5532 27.16ZM116.419 23.86V40H111.949V38.14C110.789 39.54 109.109 40.24 106.909 40.24C105.389 40.24 104.009 39.9 102.769 39.22C101.549 38.54 100.589 37.57 99.889 36.31C99.189 35.05 98.839 33.59 98.839 31.93C98.839 30.27 99.189 28.81 99.889 27.55C100.589 26.29 101.549 25.32 102.769 24.64C104.009 23.96 105.389 23.62 106.909 23.62C108.969 23.62 110.579 24.27 111.739 25.57V23.86H116.419ZM107.719 36.4C108.899 36.4 109.879 36 110.659 35.2C111.439 34.38 111.829 33.29 111.829 31.93C111.829 30.57 111.439 29.49 110.659 28.69C109.879 27.87 108.899 27.46 107.719 27.46C106.519 27.46 105.529 27.87 104.749 28.69C103.969 29.49 103.579 30.57 103.579 31.93C103.579 33.29 103.969 34.38 104.749 35.2C105.529 36 106.519 36.4 107.719 36.4ZM130.472 39.22C130.012 39.56 129.442 39.82 128.762 40C128.102 40.16 127.412 40.24 126.692 40.24C124.752 40.24 123.262 39.75 122.222 38.77C121.182 37.79 120.662 36.35 120.662 34.45V20.29H125.342V24.22H129.332V27.82H125.342V34.39C125.342 35.07 125.512 35.6 125.852 35.98C126.192 36.34 126.682 36.52 127.322 36.52C128.042 36.52 128.682 36.32 129.242 35.92L130.472 39.22ZM162.056 23.62C164.056 23.62 165.666 24.22 166.886 25.42C168.126 26.62 168.746 28.4 168.746 30.76V40H164.066V31.48C164.066 30.2 163.786 29.25 163.226 28.63C162.666 27.99 161.856 27.67 160.796 27.67C159.616 27.67 158.676 28.04 157.976 28.78C157.276 29.5 156.926 30.58 156.926 32.02V40H152.246V17.74H156.926V25.54C157.546 24.92 158.296 24.45 159.176 24.13C160.056 23.79 161.016 23.62 162.056 23.62ZM180.844 40.24C179.144 40.24 177.614 39.89 176.254 39.19C174.914 38.47 173.864 37.48 173.104 36.22C172.344 34.96 171.964 33.53 171.964 31.93C171.964 30.33 172.344 28.9 173.104 27.64C173.864 26.38 174.914 25.4 176.254 24.7C177.614 23.98 179.144 23.62 180.844 23.62C182.544 23.62 184.064 23.98 185.404 24.7C186.744 25.4 187.794 26.38 188.554 27.64C189.314 28.9 189.694 30.33 189.694 31.93C189.694 33.53 189.314 34.96 188.554 36.22C187.794 37.48 186.744 38.47 185.404 39.19C184.064 39.89 182.544 40.24 180.844 40.24ZM180.844 36.4C182.044 36.4 183.024 36 183.784 35.2C184.564 34.38 184.954 33.29 184.954 31.93C184.954 30.57 184.564 29.49 183.784 28.69C183.024 27.87 182.044 27.46 180.844 27.46C179.644 27.46 178.654 27.87 177.874 28.69C177.094 29.49 176.704 30.57 176.704 31.93C176.704 33.29 177.094 34.38 177.874 35.2C178.654 36 179.644 36.4 180.844 36.4ZM202.362 23.62C203.862 23.62 205.222 23.97 206.442 24.67C207.682 25.35 208.652 26.32 209.352 27.58C210.052 28.82 210.402 30.27 210.402 31.93C210.402 33.59 210.052 35.05 209.352 36.31C208.652 37.55 207.682 38.52 206.442 39.22C205.222 39.9 203.862 40.24 202.362 40.24C200.302 40.24 198.682 39.59 197.502 38.29V45.82H192.822V23.86H197.292V25.72C198.452 24.32 200.142 23.62 202.362 23.62ZM201.552 36.4C202.752 36.4 203.732 36 204.492 35.2C205.272 34.38 205.662 33.29 205.662 31.93C205.662 30.57 205.272 29.49 204.492 28.69C203.732 27.87 202.752 27.46 201.552 27.46C200.352 27.46 199.362 27.87 198.582 28.69C197.822 29.49 197.442 30.57 197.442 31.93C197.442 33.29 197.822 34.38 198.582 35.2C199.362 36 200.352 36.4 201.552 36.4Z" fill="white"></path><path d="M140.345 40.36C138.685 40.36 137.075 40.14 135.515 39.7C133.975 39.24 132.735 38.65 131.795 37.93L133.445 34.27C134.345 34.93 135.415 35.46 136.655 35.86C137.895 36.26 139.135 36.46 140.375 36.46C141.755 36.46 142.775 36.26 143.435 35.86C144.095 35.44 144.425 34.89 144.425 34.21C144.425 33.71 144.225 33.3 143.825 32.98C143.445 32.64 142.945 32.37 142.325 32.17C141.725 31.97 140.905 31.75 139.865 31.51C138.265 31.13 136.955 30.75 135.935 30.37C134.915 29.99 134.035 29.38 133.295 28.54C132.575 27.7 132.215 26.58 132.215 25.18C132.215 23.96 132.545 22.86 133.205 21.88C133.865 20.88 134.855 20.09 136.175 19.51C137.515 18.93 139.145 18.64 141.065 18.64C142.405 18.64 143.715 18.8 144.995 19.12C146.275 19.44 147.395 19.9 148.355 20.5L146.855 24.19C144.915 23.09 142.975 22.54 141.035 22.54C139.675 22.54 138.665 22.76 138.005 23.2C137.365 23.64 137.045 24.22 137.045 24.94C137.045 25.66 137.415 26.2 138.155 26.56C138.915 26.9 140.065 27.24 141.605 27.58C143.205 27.96 144.515 28.34 145.535 28.72C146.555 29.1 147.425 29.7 148.145 30.52C148.885 31.34 149.255 32.45 149.255 33.85C149.255 35.05 148.915 36.15 148.235 37.15C147.575 38.13 146.575 38.91 145.235 39.49C143.895 40.07 142.265 40.36 140.345 40.36Z" fill="#EBB700"></path></svg> 