<?xml version="1.0" encoding="UTF-8"?> <svg xmlns="http://www.w3.org/2000/svg" width="249" height="64" viewBox="0 0 249 64" fill="none"><circle cx="32" cy="32" r="32" fill="#CC0C34"></circle><g filter="url(#filter0_d_1_4)"><path d="M13.7468 42L8 20H11.344L16.4716 39.8943H14.8119L20.1376 20H23.1101L28.2872 39.8943H26.6771L31.9284 20H35L29.2532 42H25.8349L21.1037 24.0543H21.9954L17.1899 42H13.7468Z" fill="white"></path></g><g filter="url(#filter1_d_1_4)"><path d="M41 42V20H44.6694V38.5429H55V42H41Z" fill="white"></path></g><path d="M78.77 42L71.81 21H75.86L82.07 39.99H80.06L86.51 21H90.11L96.38 39.99H94.43L100.79 21H104.51L97.55 42H93.41L87.68 24.87H88.76L82.94 42H78.77ZM116.857 25.8C118.137 25.8 119.277 26.05 120.277 26.55C121.297 27.05 122.097 27.82 122.677 28.86C123.257 29.88 123.547 31.2 123.547 32.82V42H119.797V33.3C119.797 31.88 119.457 30.82 118.777 30.12C118.117 29.42 117.187 29.07 115.987 29.07C115.107 29.07 114.327 29.25 113.647 29.61C112.967 29.97 112.437 30.51 112.057 31.23C111.697 31.93 111.517 32.82 111.517 33.9V42H107.767V19.74H111.517V30.3L110.707 28.98C111.267 27.96 112.077 27.18 113.137 26.64C114.217 26.08 115.457 25.8 116.857 25.8ZM135.863 42.21C134.083 42.21 132.523 41.86 131.183 41.16C129.863 40.44 128.833 39.46 128.093 38.22C127.373 36.98 127.013 35.57 127.013 33.99C127.013 32.39 127.363 30.98 128.063 29.76C128.783 28.52 129.763 27.55 131.003 26.85C132.263 26.15 133.693 25.8 135.293 25.8C136.853 25.8 138.243 26.14 139.463 26.82C140.683 27.5 141.643 28.46 142.343 29.7C143.043 30.94 143.393 32.4 143.393 34.08C143.393 34.24 143.383 34.42 143.363 34.62C143.363 34.82 143.353 35.01 143.333 35.19H129.983V32.7H141.353L139.883 33.48C139.903 32.56 139.713 31.75 139.313 31.05C138.913 30.35 138.363 29.8 137.663 29.4C136.983 29 136.193 28.8 135.293 28.8C134.373 28.8 133.563 29 132.863 29.4C132.183 29.8 131.643 30.36 131.243 31.08C130.863 31.78 130.673 32.61 130.673 33.57V34.17C130.673 35.13 130.893 35.98 131.333 36.72C131.773 37.46 132.393 38.03 133.193 38.43C133.993 38.83 134.913 39.03 135.953 39.03C136.853 39.03 137.663 38.89 138.383 38.61C139.103 38.33 139.743 37.89 140.303 37.29L142.313 39.6C141.593 40.44 140.683 41.09 139.583 41.55C138.503 41.99 137.263 42.21 135.863 42.21ZM156.426 42V38.76L156.216 38.07V32.4C156.216 31.3 155.886 30.45 155.226 29.85C154.566 29.23 153.566 28.92 152.226 28.92C151.326 28.92 150.436 29.06 149.556 29.34C148.696 29.62 147.966 30.01 147.366 30.51L145.896 27.78C146.756 27.12 147.776 26.63 148.956 26.31C150.156 25.97 151.396 25.8 152.676 25.8C154.996 25.8 156.786 26.36 158.046 27.48C159.326 28.58 159.966 30.29 159.966 32.61V42H156.426ZM151.386 42.21C150.186 42.21 149.136 42.01 148.236 41.61C147.336 41.19 146.636 40.62 146.136 39.9C145.656 39.16 145.416 38.33 145.416 37.41C145.416 36.51 145.626 35.7 146.046 34.98C146.486 34.26 147.196 33.69 148.176 33.27C149.156 32.85 150.456 32.64 152.076 32.64H156.726V35.13H152.346C151.066 35.13 150.206 35.34 149.766 35.76C149.326 36.16 149.106 36.66 149.106 37.26C149.106 37.94 149.376 38.48 149.916 38.88C150.456 39.28 151.206 39.48 152.166 39.48C153.086 39.48 153.906 39.27 154.626 38.85C155.366 38.43 155.896 37.81 156.216 36.99L156.846 39.24C156.486 40.18 155.836 40.91 154.896 41.43C153.976 41.95 152.806 42.21 151.386 42.21ZM170.808 42.21C169.048 42.21 167.688 41.76 166.728 40.86C165.768 39.94 165.288 38.59 165.288 36.81V22.44H169.038V36.72C169.038 37.48 169.228 38.07 169.608 38.49C170.008 38.91 170.558 39.12 171.258 39.12C172.098 39.12 172.798 38.9 173.358 38.46L174.408 41.13C173.968 41.49 173.428 41.76 172.788 41.94C172.148 42.12 171.488 42.21 170.808 42.21ZM162.648 29.1V26.1H173.328V29.1H162.648ZM177.853 42V21H181.753V38.7H192.733V42H177.853ZM202.086 42.21C200.726 42.21 199.526 41.96 198.486 41.46C197.446 40.94 196.636 40.16 196.056 39.12C195.476 38.06 195.186 36.73 195.186 35.13V25.98H198.936V34.62C198.936 36.06 199.256 37.14 199.896 37.86C200.556 38.56 201.486 38.91 202.686 38.91C203.566 38.91 204.326 38.73 204.966 38.37C205.626 38.01 206.136 37.47 206.496 36.75C206.876 36.03 207.066 35.14 207.066 34.08V25.98H210.816V42H207.246V37.68L207.876 39C207.336 40.04 206.546 40.84 205.506 41.4C204.466 41.94 203.326 42.21 202.086 42.21ZM213.536 42L220.586 32.82L220.526 34.83L213.806 25.98H217.976L222.686 32.28H221.096L225.836 25.98H229.886L223.106 34.83L223.136 32.82L230.156 42H225.926L220.976 35.31L222.536 35.52L217.676 42H213.536ZM239.926 42.21C238.146 42.21 236.586 41.86 235.246 41.16C233.926 40.44 232.896 39.46 232.156 38.22C231.436 36.98 231.076 35.57 231.076 33.99C231.076 32.39 231.426 30.98 232.126 29.76C232.846 28.52 233.826 27.55 235.066 26.85C236.326 26.15 237.756 25.8 239.356 25.8C240.916 25.8 242.306 26.14 243.526 26.82C244.746 27.5 245.706 28.46 246.406 29.7C247.106 30.94 247.456 32.4 247.456 34.08C247.456 34.24 247.446 34.42 247.426 34.62C247.426 34.82 247.416 35.01 247.396 35.19H234.046V32.7H245.416L243.946 33.48C243.966 32.56 243.776 31.75 243.376 31.05C242.976 30.35 242.426 29.8 241.726 29.4C241.046 29 240.256 28.8 239.356 28.8C238.436 28.8 237.626 29 236.926 29.4C236.246 29.8 235.706 30.36 235.306 31.08C234.926 31.78 234.736 32.61 234.736 33.57V34.17C234.736 35.13 234.956 35.98 235.396 36.72C235.836 37.46 236.456 38.03 237.256 38.43C238.056 38.83 238.976 39.03 240.016 39.03C240.916 39.03 241.726 38.89 242.446 38.61C243.166 38.33 243.806 37.89 244.366 37.29L246.376 39.6C245.656 40.44 244.746 41.09 243.646 41.55C242.566 41.99 241.326 42.21 239.926 42.21Z" fill="white"></path><defs><filter id="filter0_d_1_4" x="4" y="20" width="35" height="30" filterUnits="userSpaceOnUse" color-interpolation-filters="sRGB"><feFlood flood-opacity="0" result="BackgroundImageFix"></feFlood><feColorMatrix in="SourceAlpha" type="matrix" values="0 0 0 0 0 0 0 0 0 0 0 0 0 0 0 0 0 0 127 0" result="hardAlpha"></feColorMatrix><feOffset dy="4"></feOffset><feGaussianBlur stdDeviation="2"></feGaussianBlur><feComposite in2="hardAlpha" operator="out"></feComposite><feColorMatrix type="matrix" values="0 0 0 0 0 0 0 0 0 0 0 0 0 0 0 0 0 0 0.25 0"></feColorMatrix><feBlend mode="normal" in2="BackgroundImageFix" result="effect1_dropShadow_1_4"></feBlend><feBlend mode="normal" in="SourceGraphic" in2="effect1_dropShadow_1_4" result="shape"></feBlend></filter><filter id="filter1_d_1_4" x="37" y="20" width="22" height="30" filterUnits="userSpaceOnUse" color-interpolation-filters="sRGB"><feFlood flood-opacity="0" result="BackgroundImageFix"></feFlood><feColorMatrix in="SourceAlpha" type="matrix" values="0 0 0 0 0 0 0 0 0 0 0 0 0 0 0 0 0 0 127 0" result="hardAlpha"></feColorMatrix><feOffset dy="4"></feOffset><feGaussianBlur stdDeviation="2"></feGaussianBlur><feComposite in2="hardAlpha" operator="out"></feComposite><feColorMatrix type="matrix" values="0 0 0 0 0 0 0 0 0 0 0 0 0 0 0 0 0 0 0.25 0"></feColorMatrix><feBlend mode="normal" in2="BackgroundImageFix" result="effect1_dropShadow_1_4"></feBlend><feBlend mode="normal" in="SourceGraphic" in2="effect1_dropShadow_1_4" result="shape"></feBlend></filter></defs></svg> 