<svg width="40" height="40" viewBox="0 0 40 40" fill="none" xmlns="http://www.w3.org/2000/svg">
<path d="M27.3922 23.167L23.4857 21.4892C23.3322 21.4232 23.1645 21.397 22.9982 21.4131C22.8318 21.4291 22.6722 21.4869 22.5341 21.581L20.439 22.975C20.3934 23.0076 20.3398 23.0271 20.2839 23.0315C20.228 23.0359 20.172 23.025 20.1218 23C18.7686 22.3494 17.6746 21.2612 17.0167 19.9116C16.9918 19.8599 16.981 19.8026 16.9854 19.7454C16.9898 19.6883 17.0092 19.6333 17.0417 19.586L18.4273 17.4659C18.518 17.3277 18.573 17.1693 18.5876 17.0047C18.6021 16.8402 18.5758 16.6745 18.5108 16.5226L16.833 12.6078C16.7467 12.4089 16.5986 12.243 16.4107 12.1348C16.2228 12.0266 16.005 11.9817 15.7896 12.0068C14.7428 12.1425 13.7811 12.6544 13.0839 13.4469C12.3866 14.2393 12.0014 15.2584 12 16.3139C12 22.758 17.242 28 23.6861 28C24.7416 27.9986 25.7607 27.6134 26.5531 26.9161C27.3456 26.2189 27.8575 25.2572 27.9932 24.2104C28.0183 23.995 27.9734 23.7772 27.8652 23.5893C27.757 23.4014 27.5911 23.2533 27.3922 23.167ZM27.3338 24.1269C27.2183 25.0129 26.7845 25.8266 26.1134 26.4163C25.4422 27.0061 24.5795 27.3316 23.6861 27.3322C20.7645 27.33 17.9632 26.1685 15.8974 24.1026C13.8315 22.0368 12.67 19.2355 12.6678 16.3139C12.6684 15.4205 12.9939 14.5578 13.5837 13.8866C14.1734 13.2155 14.9871 12.7817 15.8731 12.6662H15.9148C15.9801 12.6669 16.0436 12.6871 16.0972 12.7244C16.1507 12.7616 16.1919 12.814 16.2153 12.8749L17.8931 16.7814C17.9164 16.832 17.9264 16.8877 17.922 16.9432C17.9176 16.9988 17.899 17.0523 17.8681 17.0986L16.4824 19.2188C16.388 19.3635 16.3322 19.5301 16.3205 19.7025C16.3088 19.875 16.3416 20.0476 16.4157 20.2037C17.1427 21.6854 18.3445 22.8813 19.8297 23.601C19.9861 23.6755 20.1594 23.7078 20.3321 23.6946C20.5049 23.6814 20.6713 23.6233 20.8146 23.5259L22.9014 22.1319C22.948 22.1017 23.0015 22.0836 23.0568 22.0792C23.1122 22.0748 23.1678 22.0843 23.2186 22.1069L27.1251 23.7847C27.1922 23.8114 27.2489 23.8593 27.2865 23.921C27.3241 23.9827 27.3407 24.055 27.3338 24.1269Z" fill="white"/>
</svg>
