<svg width="40" height="40" viewBox="0 0 40 40" fill="none" xmlns="http://www.w3.org/2000/svg">
<path d="M28.657 12.2482C28.5224 12.127 28.3587 12.0463 28.1834 12.0148C28.0081 11.9833 27.8279 12.0023 27.6622 12.0696L12.6168 18.2359C12.4213 18.3171 12.256 18.4618 12.1456 18.6486C12.0352 18.8354 11.9854 19.0544 12.0037 19.2731C12.022 19.4917 12.1074 19.6984 12.2472 19.8624C12.3871 20.0264 12.5738 20.1391 12.7799 20.1836L16.8654 21.0427V26.2989C16.8629 26.5014 16.9192 26.6999 17.0269 26.8684C17.1346 27.0369 17.2887 27.1675 17.4688 27.243C17.5908 27.2936 17.7208 27.3196 17.8521 27.3195C17.9795 27.3197 18.1056 27.2934 18.2232 27.2423C18.3408 27.1912 18.4475 27.1163 18.5371 27.0218L20.8693 24.5893L24.3106 27.7448C24.4869 27.9113 24.717 28.0024 24.9548 28C25.0573 27.9997 25.1592 27.9824 25.2565 27.9489C25.4169 27.8941 25.561 27.7972 25.6752 27.6677C25.7895 27.5381 25.8699 27.3802 25.9089 27.209L28.9751 13.2433C29.0152 13.063 29.0067 12.8746 28.9506 12.699C28.8945 12.5234 28.7929 12.3674 28.657 12.2482ZM12.6494 19.214C12.6397 19.1403 12.6547 19.0654 12.6919 19.0018C12.729 18.9383 12.786 18.8901 12.8533 18.8653L26.651 13.2178L17.1182 20.3963L12.9104 19.5202C12.8403 19.507 12.7765 19.4697 12.7292 19.4142C12.6818 19.3586 12.6538 19.2882 12.6494 19.214ZM18.0723 26.537C18.028 26.5851 17.9708 26.6181 17.9083 26.6317C17.8457 26.6454 17.7807 26.6391 17.7216 26.6136C17.6615 26.5882 17.61 26.5447 17.5737 26.4887C17.5374 26.4326 17.5179 26.3666 17.5178 26.2989V21.5104L20.38 24.1386L18.0723 26.537ZM28.339 13.0988L25.2729 27.0559C25.2606 27.1137 25.2338 27.1672 25.195 27.2105C25.1563 27.2539 25.1072 27.2857 25.0527 27.3025C25 27.3222 24.9432 27.3263 24.8885 27.3143C24.8338 27.3023 24.7833 27.2747 24.7428 27.2345L17.7135 20.7875L28.2901 12.8181C28.3167 12.8586 28.3349 12.9046 28.3433 12.953C28.3517 13.0013 28.3503 13.051 28.339 13.0988Z" fill="white"/>
</svg>
